HIERARCHY
ROOT joint_Root
{
	OFFSET 0.0 0.0 0.0
	CHANNELS 6 Xposition Yposition Zposition Zrotation Xrotation Yrotation 
	JOINT Hips
	{
		OFFSET 4.5925 91.4895 -427.239
		CHANNELS 6 Xposition Yposition Zposition Zrotation Xrotation Yrotation 
		JOINT Spine
		{
			OFFSET 15.7357 0.0 0.0
			CHANNELS 6 Xposition Yposition Zposition Zrotation Xrotation Yrotation 
			JOINT Chest
			{
				OFFSET 8.98455 -0.406207 0.0
				CHANNELS 6 Xposition Yposition Zposition Zrotation Xrotation Yrotation 
				JOINT Neck
				{
					OFFSET 16.3773 0.0 0.0
					CHANNELS 6 Xposition Yposition Zposition Zrotation Xrotation Yrotation 
					JOINT Head
					{
						OFFSET 6.45672 0.0 0.0
						CHANNELS 6 Xposition Yposition Zposition Zrotation Xrotation Yrotation 
						End Site
						{
							OFFSET 0.0 0.0 0.0
						}
					}
				}
				JOINT Shoulder_L
				{
					OFFSET 12.9942 -0.242716 4.98039
					CHANNELS 6 Xposition Yposition Zposition Zrotation Xrotation Yrotation 
					JOINT UpperArm_L
					{
						OFFSET 5.34809 0.0 0.0
						CHANNELS 6 Xposition Yposition Zposition Zrotation Xrotation Yrotation 
						JOINT LowerArm_L
						{
							OFFSET 24.3286 1.87007e-05 0.0
							CHANNELS 6 Xposition Yposition Zposition Zrotation Xrotation Yrotation 
							JOINT Hand_L
							{
								OFFSET 22.2916 0.0 0.0
								CHANNELS 6 Xposition Yposition Zposition Zrotation Xrotation Yrotation 
								End Site
								{
									OFFSET 0.0 0.0 0.0
								}
							}
						}
					}
				}
				JOINT Shoulder_R
				{
					OFFSET 12.9945 -0.242716 -4.98039
					CHANNELS 6 Xposition Yposition Zposition Zrotation Xrotation Yrotation 
					JOINT UpperArm_R
					{
						OFFSET -5.34813 0.0 0.0
						CHANNELS 6 Xposition Yposition Zposition Zrotation Xrotation Yrotation 
						JOINT LowerArm_R
						{
							OFFSET -24.3289 0.000322201 0.0
							CHANNELS 6 Xposition Yposition Zposition Zrotation Xrotation Yrotation 
							JOINT Hand_R
							{
								OFFSET -22.2915 -0.000108084 0.0
								CHANNELS 6 Xposition Yposition Zposition Zrotation Xrotation Yrotation 
								End Site
								{
									OFFSET 0.0 0.0 0.0
								}
							}
						}
					}
				}
			}
		}
		JOINT UpperLeg_L
		{
			OFFSET -2.19248 -6.46944 0.0
			CHANNELS 6 Xposition Yposition Zposition Zrotation Xrotation Yrotation 
			JOINT LowerLeg_L
			{
				OFFSET 39.0811 0.0 -1.23785e-05
				CHANNELS 6 Xposition Yposition Zposition Zrotation Xrotation Yrotation 
				JOINT Foot_L
				{
					OFFSET 40.9854 0.0 -1.26872e-05
					CHANNELS 6 Xposition Yposition Zposition Zrotation Xrotation Yrotation 
					JOINT Toes_L
					{
						OFFSET 11.7543 0.0 0.0
						CHANNELS 6 Xposition Yposition Zposition Zrotation Xrotation Yrotation 
						End Site
						{
							OFFSET 0.0 0.0 0.0
						}
					}
				}
			}
		}
		JOINT UpperLeg_R
		{
			OFFSET -2.19251 6.46944 0.0
			CHANNELS 6 Xposition Yposition Zposition Zrotation Xrotation Yrotation 
			JOINT LowerLeg_R
			{
				OFFSET -39.0811 -0.00228153 -0.0401928
				CHANNELS 6 Xposition Yposition Zposition Zrotation Xrotation Yrotation 
				JOINT Foot_R
				{
					OFFSET -40.9854 0.0 0.0
					CHANNELS 6 Xposition Yposition Zposition Zrotation Xrotation Yrotation 
					JOINT Toes_R
					{
						OFFSET -11.7543 0.0 0.0
						CHANNELS 6 Xposition Yposition Zposition Zrotation Xrotation Yrotation 
						End Site
						{
							OFFSET 0.0 0.0 0.0
						}
					}
				}
			}
		}
	}
}
MOTION
Frames:	6
Frame Time:	0.0333333
0.000000 0.000000 0.000000 0.000000 0.000000 -0.000000 -0.632727 85.798500 468.230000 -90.314700 -0.695769 -179.881000 15.735700 0.000005 -0.000001 88.582300 81.750700 -89.561700 8.984550 -0.406207 -0.000000 8.724940 -0.414353 -1.925410 16.377300 -0.000001 -0.000001 -3.446960 -4.642170 2.020030 6.456720 -0.000001 -0.000000 -4.722930 -4.778930 3.477920 12.994200 -0.242716 4.980390 -91.010600 3.979090 -75.735600 5.348090 -0.000007 -0.000001 -63.867500 20.204800 -12.052100 24.328600 0.000019 0.000005 0.144739 0.025387 -80.167900 22.291600 -0.000001 0.000005 23.976000 5.463810 -5.140670 12.994500 -0.242716 -4.980390 88.626300 11.304500 -83.025100 -5.348130 -0.000001 -0.000004 -58.163600 32.353000 -7.004890 -24.328900 0.000322 -0.000009 -23.444700 -8.705060 -70.761200 -22.291500 -0.000108 -0.000004 28.196400 5.649020 -14.920400 -2.192480 -6.469440 -0.000000 179.376000 -5.212460 -25.984900 39.081100 -0.000007 -0.000012 -0.473933 0.367689 52.195900 40.985400 -0.000006 -0.000013 -0.499118 -4.237680 -76.526100 11.754300 -0.000000 0.000003 -0.000309 -0.002668 -16.676800 -2.192510 6.469440 -0.000001 177.923000 5.338870 153.948000 -39.081100 -0.002282 -0.040193 0.072554 -0.011683 80.486300 -40.985400 0.000008 0.000006 7.481110 -4.966480 -53.498100 -11.754300 -0.000006 -0.000006 -0.016622 -0.147804 -22.606200
0.000000 0.000000 0.000000 0.000000 0.000000 -0.000000 -0.883133 85.626900 464.686000 -89.977500 -1.447280 179.849000 15.735700 0.000005 -0.000001 84.516000 81.690300 -85.281000 8.984550 -0.406207 -0.000000 8.769640 -1.587020 -1.407070 16.377300 -0.000001 -0.000001 -3.941150 -4.523150 1.662210 6.456720 -0.000001 -0.000000 -5.070600 -4.109740 3.104690 12.994200 -0.242716 4.980390 -90.977900 4.218930 -76.938300 5.348090 -0.000007 -0.000001 -61.362100 17.647100 -21.464400 24.328600 0.000019 0.000005 -1.627820 -0.224199 -82.150900 22.291600 -0.000001 0.000005 24.335800 5.481960 -5.827310 12.994500 -0.242716 -4.980390 88.598000 11.116400 -82.764800 -5.348130 -0.000001 -0.000004 -62.108200 33.000900 -0.259514 -24.328900 0.000322 -0.000009 -24.465000 -9.939560 -69.223800 -22.291500 -0.000108 -0.000004 28.186400 5.643520 -14.425600 -2.192480 -6.469440 -0.000000 179.819000 -5.606400 -23.648300 39.081100 -0.000007 -0.000012 -0.495077 0.380209 52.477600 40.985400 -0.000006 -0.000013 -0.364973 -3.390660 -79.402000 11.754300 -0.000000 0.000003 -0.000414 -0.003404 -16.702900 -2.192510 6.469440 -0.000001 179.488000 7.296070 148.542000 -39.081100 -0.002282 -0.040193 0.077536 -0.012702 80.348400 -40.985400 0.000008 0.000006 5.919440 -3.892340 -56.337100 -11.754300 -0.000006 -0.000006 -0.016983 -0.149961 -22.694800
0.000000 0.000000 0.000000 0.000000 0.000000 -0.000000 -0.999421 86.109100 461.035000 -89.472000 -2.601200 179.295000 15.735700 0.000005 -0.000001 78.921300 81.737900 -79.305000 8.984550 -0.406207 -0.000000 8.449270 -3.162580 -0.533167 16.377300 -0.000001 -0.000001 -4.050120 -4.402850 1.277440 6.456720 -0.000001 -0.000000 -5.319410 -3.037500 2.918610 12.994200 -0.242716 4.980390 -90.651200 3.112350 -78.180200 5.348090 -0.000007 -0.000001 -61.685500 14.580100 -27.998900 24.328600 0.000019 0.000005 -0.835482 -0.083025 -84.398800 22.291600 -0.000001 0.000005 24.301900 5.498720 -6.478190 12.994500 -0.242716 -4.980390 88.567300 10.379200 -82.096200 -5.348130 -0.000001 -0.000004 -65.749900 33.383500 5.524450 -24.328900 0.000322 -0.000009 -24.924000 -10.103300 -69.317100 -22.291500 -0.000108 -0.000004 28.076000 5.644270 -14.493700 -2.192480 -6.469440 -0.000000 -179.253000 -5.523680 -20.159300 39.081100 -0.000007 -0.000012 -0.559207 0.467909 50.080900 40.985400 -0.000006 -0.000013 -0.398015 -2.473570 -81.023100 11.754300 -0.000000 0.000003 -0.000375 -0.003136 -16.693500 -2.192510 6.469440 -0.000001 -178.117000 10.257900 145.059000 -39.081100 -0.002282 -0.040193 0.065621 -0.017674 74.228400 -40.985400 0.000008 0.000006 5.314190 -4.023150 -59.710800 -11.754300 -0.000006 -0.000006 -0.015811 -0.142865 -22.403300
0.000000 0.000000 0.000000 0.000000 0.000000 -0.000000 -1.114720 87.088600 457.132000 -89.045500 -2.555570 178.897000 15.735700 0.000005 -0.000001 74.684400 81.817400 -74.712000 8.984550 -0.406207 -0.000000 8.033830 -4.304040 0.247281 16.377300 -0.000001 -0.000001 -4.157650 -3.996080 0.906349 6.456720 -0.000001 -0.000000 -5.230750 -1.846950 2.652430 12.994200 -0.242716 4.980390 -90.308700 1.528440 -78.581800 5.348090 -0.000007 -0.000001 -62.960700 12.227600 -31.605500 24.328600 0.000019 0.000005 1.136590 0.054914 -87.224100 22.291600 -0.000001 0.000005 24.104100 5.502840 -6.647800 12.994500 -0.242716 -4.980390 88.571800 9.692110 -81.576100 -5.348130 -0.000001 -0.000004 -68.104100 33.712900 9.676810 -24.328900 0.000322 -0.000009 -24.388100 -9.375330 -70.235300 -22.291500 -0.000108 -0.000004 27.477400 5.644570 -14.521000 -2.192480 -6.469440 -0.000000 -178.506000 -6.214180 -15.098800 39.081100 -0.000007 -0.000012 -0.444169 0.444139 45.003000 40.985400 -0.000006 -0.000013 -0.451935 -1.718080 -81.382400 11.754300 -0.000000 0.000003 -0.000368 -0.003087 -16.691700 -2.192510 6.469440 -0.000001 -175.733000 11.942600 144.193000 -39.081100 -0.002282 -0.040193 0.032740 -0.015097 62.944300 -40.985400 0.000008 0.000006 4.200620 -3.398810 -61.779900 -11.754300 -0.000006 -0.000006 -0.015863 -0.143183 -22.416300
0.000000 0.000000 0.000000 0.000000 0.000000 -0.000000 -1.196870 88.079500 452.974000 -88.438400 -1.794710 178.335000 15.735700 0.000005 -0.000001 72.065600 82.051000 -71.652500 8.984550 -0.406207 -0.000000 7.397460 -4.878430 1.141230 16.377300 -0.000001 -0.000001 -4.016660 -3.433440 0.711761 6.456720 -0.000001 -0.000000 -5.286920 -0.959337 2.213620 12.994200 -0.242716 4.980390 -90.065900 0.320027 -78.355800 5.348090 -0.000007 -0.000001 -63.772800 11.510100 -33.061700 24.328600 0.000019 0.000005 -0.137314 -0.000224 -89.613200 22.291600 -0.000001 0.000005 24.600200 5.513840 -7.101110 12.994500 -0.242716 -4.980390 88.651700 8.950190 -81.397000 -5.348130 -0.000001 -0.000004 -69.485000 33.455400 11.908800 -24.328900 0.000322 -0.000009 -22.748700 -8.293910 -71.015100 -22.291500 -0.000108 -0.000004 26.624000 5.645390 -14.591000 -2.192480 -6.469440 -0.000000 -178.187000 -5.866990 -9.568790 39.081100 -0.000007 -0.000012 0.021843 -0.026947 39.025800 40.985400 -0.000006 -0.000013 1.951250 -3.412830 -80.915700 11.754300 -0.000000 0.000003 -1.675890 -2.186850 -15.797200 -2.192510 6.469440 -0.000001 -173.210000 13.195400 145.257000 -39.081100 -0.002282 -0.040193 0.010463 -0.006385 48.472400 -40.985400 0.000008 0.000006 1.376220 -1.425760 -62.134100 -11.754300 -0.000006 -0.000006 -0.015868 -0.143219 -22.417800
0.000000 0.000000 0.000000 0.000000 0.000000 -0.000000 -1.314220 88.885300 448.387000 -88.509100 -1.551280 177.930000 15.735700 0.000005 -0.000001 69.271300 82.266600 -68.584700 8.984550 -0.406207 -0.000000 6.756310 -5.462880 1.695070 16.377300 -0.000001 -0.000001 -3.750420 -3.085770 0.628331 6.456720 -0.000001 -0.000000 -5.229140 -0.415390 1.821920 12.994200 -0.242716 4.980390 -89.922100 -0.373993 -78.237900 5.348090 -0.000007 -0.000001 -64.492800 12.112800 -32.043300 24.328600 0.000019 0.000005 -2.315710 0.039209 -90.967600 22.291600 -0.000001 0.000005 24.331400 5.520500 -7.383290 12.994500 -0.242716 -4.980390 88.741300 8.347110 -81.393400 -5.348130 -0.000001 -0.000004 -69.847700 32.927600 12.023700 -24.328900 0.000322 -0.000009 -22.098300 -7.560650 -72.043200 -22.291500 -0.000108 -0.000004 26.295900 5.645180 -14.571900 -2.192480 -6.469440 -0.000000 -178.066000 -4.627040 -6.669470 39.081100 -0.000007 -0.000012 0.002665 -0.003469 37.517400 40.985400 -0.000006 -0.000013 0.772405 -3.585730 -75.670700 11.754300 -0.000000 0.000003 -1.498270 -1.756280 -19.939600 -2.192510 6.469440 -0.000001 -171.011000 16.171200 147.615000 -39.081100 -0.002282 -0.040193 0.057251 -0.076054 35.356100 -40.985400 0.000008 0.000006 1.915590 2.218350 -64.513700 -11.754300 -0.000006 -0.000006 -0.017454 -0.152752 -22.809600
